<?xml version="1.0" encoding="UTF-8"?>
<svg version="1.1" xmlns="http://www.w3.org/2000/svg" width="5000" height="5000">
<path d="M0 0 C2.29852525 1.14979297 4.42213101 2.31699417 6.6015625 3.65625 C7.22678802 4.03007813 7.85201355 4.40390625 8.4961853 4.7890625 C10.54470404 6.01702064 12.58475651 7.25834984 14.625 8.5 C16.06592266 9.36734036 17.50733618 10.23386572 18.94921875 11.09960938 C23.30719021 13.72042631 27.65433515 16.35884388 32 19 C33.24048686 19.75272454 34.48104304 20.50533487 35.72167969 21.2578125 C40.28893671 24.02874943 44.85494847 26.8017165 49.41650391 29.58203125 C58.23827312 34.95507632 67.1110726 40.23894584 76 45.5 C86.61130098 51.78046857 97.18099227 58.122925 107.70898438 64.54199219 C117.09842559 70.26451936 126.53738361 75.89939881 136 81.5 C146.61130098 87.78046857 157.18099227 94.122925 167.70898438 100.54199219 C177.09842559 106.26451936 186.53738361 111.89939881 196 117.5 C206.61130098 123.78046857 217.18099227 130.122925 227.70898438 136.54199219 C237.09842559 142.26451936 246.53738361 147.89939881 256 153.5 C266.61130098 159.78046857 277.18099227 166.122925 287.70898438 172.54199219 C297.09842559 178.26451936 306.53738361 183.89939881 316 189.5 C326.61130098 195.78046857 337.18099227 202.122925 347.70898438 208.54199219 C357.09842559 214.26451936 366.53738361 219.89939881 376 225.5 C386.61130098 231.78046857 397.18099227 238.122925 407.70898438 244.54199219 C417.09842559 250.26451936 426.53738361 255.89939881 436 261.5 C446.61130098 267.78046857 457.18099227 274.122925 467.70898438 280.54199219 C477.09842559 286.26451936 486.53738361 291.89939881 496 297.5 C506.61130098 303.78046857 517.18099227 310.122925 527.70898438 316.54199219 C537.09842559 322.26451936 546.53738361 327.89939881 556 333.5 C566.61130098 339.78046857 577.18099227 346.122925 587.70898438 352.54199219 C597.09842559 358.26451936 606.53738361 363.89939881 616 369.5 C626.61130098 375.78046857 637.18099227 382.122925 647.70898438 388.54199219 C657.09842559 394.26451936 666.53738361 399.89939881 676 405.5 C686.61130098 411.78046857 697.18099227 418.122925 707.70898438 424.54199219 C717.09842559 430.26451936 726.53738361 435.89939881 736 441.5 C746.61130098 447.78046857 757.18099227 454.122925 767.70898438 460.54199219 C777.09842559 466.26451936 786.53738361 471.89939881 796 477.5 C806.61130098 483.78046857 817.18099227 490.122925 827.70898438 496.54199219 C837.09842559 502.26451936 846.53738361 507.89939881 856 513.5 C866.61130098 519.78046857 877.18099227 526.122925 887.70898438 532.54199219 C897.09842559 538.26451936 906.53738361 543.89939881 916 549.5 C926.61130098 555.78046857 937.18099227 562.122925 947.70898438 568.54199219 C957.09842559 574.26451936 966.53738361 579.89939881 976 585.5 C986.61130098 591.78046857 997.18099227 598.122925 1007.70898438 604.54199219 C1017.09842559 610.26451936 1026.53738361 615.89939881 1036 621.5 C1046.61130098 627.78046857 1057.18099227 634.122925 1067.70898438 640.54199219 C1077.09842559 646.26451936 1086.53738361 651.89939881 1096 657.5 C1106.61130098 663.78046857 1117.18099227 670.122925 1127.70898438 676.54199219 C1137.09842559 682.26451936 1146.53738361 687.89939881 1156 693.5 C1166.61130098 699.78046857 1177.18099227 706.122925 1187.70898438 712.54199219 C1197.09842559 718.26451936 1206.53738361 723.89939881 1216 729.5 C1226.61130098 735.78046857 1237.18099227 742.122925 1247.70898438 748.54199219 C1257.09842559 754.26451936 1266.53738361 759.89939881 1276 765.5 C1286.61130098 771.78046857 1297.18099227 778.122925 1307.70898438 784.54199219 C1317.09842559 790.26451936 1326.53738361 795.89939881 1336 801.5 C1346.61130098 807.78046857 1357.18099227 814.122925 1367.70898438 820.54199219 C1377.09842559 826.26451936 1386.53738361 831.89939881 1396 837.5 C1406.61130098 843.78046857 1417.18099227 850.122925 1427.70898438 856.54199219 C1437.09842559 862.26451936 1446.53738361 867.89939881 1456 873.5 C1466.61130098 879.78046857 1477.18099227 886.122925 1487.70898438 892.54199219 C1497.09842559 898.26451936 1506.53738361 903.89939881 1516 909.5 C1526.61130098 915.78046857 1537.18099227 922.122925 1547.70898438 928.54199219 C1557.09842559 934.26451936 1566.53738361 939.89939881 1576 945.5 C1586.61130098 951.78046857 1597.18099227 958.122925 1607.70898438 964.54199219 C1617.09842559 970.26451936 1626.53738361 975.89939881 1636 981.5 C1647.1803893 988.11729261 1658.31044085 994.81011387 1669.40209961 1001.57495117 C1675.6425756 1005.37649139 1681.90274213 1009.14191901 1688.19140625 1012.86328125 C1688.88898041 1013.27621429 1689.58655457 1013.68914734 1690.30526733 1014.11459351 C1694.24872066 1016.44748268 1698.19399817 1018.77715186 1702.14842271 1021.09140863 C1703.39891764 1021.83528573 1704.64114668 1022.59340628 1705.87096743 1023.3709869 C1709.44069843 1025.60859704 1712.91331852 1027.41081356 1716.84271939 1028.93969791 C1722.45445458 1031.36707595 1727.26502682 1034.04794099 1731 1039 C1734.41330008 1048.44756496 1733.55799181 1059.25243066 1733.37191156 1069.16439528 C1733.31352011 1073.40400723 1733.36614914 1077.64253047 1733.4043422 1081.88217264 C1733.45626534 1089.33857239 1733.43751008 1096.79221281 1733.37278046 1104.24847391 C1733.27626465 1115.40994152 1733.28971055 1126.56944043 1733.3246454 1137.73117456 C1733.38099644 1156.75266906 1733.34731671 1175.77305614 1733.26490402 1194.79441261 C1733.18174688 1214.07246162 1733.1400216 1233.34993816 1733.14904594 1252.62817192 C1733.1495911 1253.8453482 1733.15013625 1255.06252448 1733.15069792 1256.3165849 C1733.15366901 1262.5228662 1733.15731604 1268.72914693 1733.16120181 1274.93542772 C1733.18795162 1319.86873668 1733.12273399 1364.80150845 1733.00887108 1409.73462677 C1732.98076643 1420.8448385 1732.95300079 1431.95505096 1732.92648482 1443.06526661 C1732.92483625 1443.75591947 1732.92318768 1444.44657233 1732.92148914 1445.15815406 C1732.84552795 1477.1554765 1732.81833919 1509.15278332 1732.80363141 1541.15018563 C1732.80266697 1543.24302769 1732.80167959 1545.33586974 1732.80068633 1547.42871178 C1732.79471844 1560.0486275 1732.78925843 1572.66854341 1732.78438481 1585.2884596 C1732.77224701 1616.66107905 1732.75401745 1648.03369342 1732.73165607 1679.40630722 C1732.73115004 1680.12050825 1732.730644 1680.83470927 1732.73012263 1681.57055275 C1732.69730103 1727.82463654 1732.63940169 1774.0786482 1732.56049633 1820.33267593 C1732.55923684 1821.07110964 1732.55797735 1821.80954335 1732.5566797 1822.57035384 C1732.51828694 1845.04864831 1732.47803753 1867.52693943 1732.43742489 1890.00522998 C1732.39249022 1914.88021481 1732.34787229 1939.75520016 1732.30462646 1964.63018799 C1732.30332497 1965.37819236 1732.30202348 1966.12619673 1732.30068255 1966.8968679 C1732.17716442 2037.9464211 1732.10476889 2108.9959972 1732.04558454 2180.04562971 C1732.04307383 2183.05521265 1732.04054833 2186.06479558 1732.03802221 2189.07437851 C1732.01477745 2216.76930339 1731.99213264 2244.46422874 1731.97024126 2272.15915473 C1731.96965909 2272.8955907 1731.96907693 2273.63202667 1731.96847712 2274.39077888 C1731.96671463 2276.620509 1731.96495238 2278.85023911 1731.96319013 2281.07996922 C1731.91557955 2341.31651734 1731.86273674 2401.55306052 1731.80650403 2461.78960119 C1731.80452131 2463.91490804 1731.80254262 2466.04021489 1731.80056513 2468.16552174 C1731.73632302 2537.19183897 1731.66265853 2606.21813664 1731.30151367 2851.05566406 C1731.2996149 2852.25081868 1731.29771613 2853.44597329 1731.29575982 2854.67734471 C1731.20074978 2914.45156912 1731.10244274 2974.22578787 1731 3034 C1728.1330614 3035.60072249 1725.26476899 3037.19900412 1722.39624023 3038.796875 C1721.59084557 3039.24659668 1720.7854509 3039.69631836 1719.95565033 3040.15966797 C1713.73889065 3043.6203101 1707.45668248 3046.8777874 1701.0625 3050 C1694.02381369 3053.45161524 1687.05089401 3057.00751476 1680.12109375 3060.671875 C1670.42086139 3065.80034441 1660.65839339 3070.80181469 1650.88140869 3075.78207397 C1645.9167742 3078.31129386 1640.95435313 3080.84484676 1635.9921875 3083.37890625 C1635.02352753 3083.87356888 1634.05486755 3084.36823151 1633.05685425 3084.87788391 C1624.70385768 3089.14614475 1616.37347857 3093.45650635 1608.05224609 3097.78637695 C1598.26297189 3102.87549288 1588.44477275 3107.90754858 1578.625 3112.9375 C1567.23869724 3118.7700566 1555.85851577 3124.61348766 1544.5 3130.5 C1532.33810942 3136.80260583 1520.15120141 3143.05566095 1507.95996094 3149.30126953 C1497.46228041 3154.67976081 1486.9726138 3160.0728482 1476.5 3165.5 C1464.33809645 3171.802581 1452.15120156 3178.05566087 1439.95996094 3184.30126953 C1429.46228041 3189.67976081 1418.9726138 3195.0728482 1408.5 3200.5 C1396.33809645 3206.802581 1384.15120156 3213.05566087 1371.95996094 3219.30126953 C1361.46228041 3224.67976081 1350.9726138 3230.0728482 1340.5 3235.5 C1328.33809645 3241.802581 1316.15120156 3248.05566087 1303.95996094 3254.30126953 C1293.46228041 3259.67976081 1282.9726138 3265.0728482 1272.5 3270.5 C1260.33809645 3276.802581 1248.15120156 3283.05566087 1235.95996094 3289.30126953 C1225.46228041 3294.67976081 1214.9726138 3300.0728482 1204.5 3305.5 C1192.33809645 3311.802581 1180.15120156 3318.05566087 1167.95996094 3324.30126953 C1157.46228041 3329.67976081 1146.9726138 3335.0728482 1136.5 3340.5 C1124.33809645 3346.802581 1112.15120156 3353.05566087 1099.95996094 3359.30126953 C1089.46228041 3364.67976081 1078.9726138 3370.0728482 1068.5 3375.5 C1056.33809645 3381.802581 1044.15120156 3388.05566087 1031.95996094 3394.30126953 C1021.46228041 3399.67976081 1010.9726138 3405.0728482 1000.5 3410.5 C988.33809645 3416.802581 976.15120156 3423.05566087 963.95996094 3429.30126953 C953.46228041 3434.67976081 942.9726138 3440.0728482 932.5 3445.5 C920.34782964 3451.79753703 908.17093526 3458.04610676 895.98916626 3464.28616333 C883.71267387 3470.57519927 871.44958698 3476.88927864 859.20703125 3483.24414062 C856.1405405 3484.83437714 853.07135984 3486.41919095 850 3488 C849.03143066 3488.50031738 848.06286133 3489.00063477 847.06494141 3489.51611328 C846.16308105 3489.97614746 845.2612207 3490.43618164 844.33203125 3490.91015625 C843.54159424 3491.31500244 842.75115723 3491.71984863 841.93676758 3492.13696289 C840 3493 840 3493 838 3493 C837.01 2657.935 837.01 2657.935 836 1806 C823.13 1840.65 823.13 1840.65 810 1876 C805.71 1887.22 801.42 1898.44 797 1910 C792.3069487 1922.45974842 792.3069487 1922.45974842 787.63085938 1934.92578125 C787.09596304 1936.35498637 786.56105029 1937.78418535 786.02612305 1939.21337891 C785.75635651 1939.93424683 785.48658997 1940.65511475 785.20864868 1941.39782715 C783.76043989 1945.26685661 782.31082351 1949.13535866 780.86132812 1953.00390625 C778.74377578 1958.65571464 776.62657248 1964.30765351 774.50985336 1969.95977402 C770.74089732 1980.02362144 766.96900389 1990.08636483 763.1953125 2000.1484375 C762.91850521 2000.88651264 762.64169792 2001.62458778 762.35650253 2002.38502884 C760.9621774 2006.10279136 759.56780083 2009.82053458 758.17340088 2013.53826904 C755.646851 2020.27460543 753.12076083 2027.0111142 750.5946312 2033.74760818 C749.18810584 2037.49841235 747.78155147 2041.24920563 746.375 2045 C745.81249986 2046.49999995 745.24999986 2047.99999995 744.6875 2049.5 C743.5625 2052.5 742.4375 2055.5 741.3125 2058.5 C740.89484328 2059.61375142 740.89484328 2059.61375142 740.46874905 2060.75000286 C739.9062525 2062.24999343 739.34375568 2063.74998389 738.78125858 2065.24997425 C737.3749534 2069.00011771 735.96865305 2072.75026298 734.56236267 2076.50041199 C732.03177685 2083.2487009 729.50115729 2089.99697715 726.97035503 2096.7451849 C725.56484798 2100.49287463 724.15936956 2104.24057511 722.75390625 2107.98828125 C722.33643222 2109.10148459 722.33643222 2109.10148459 721.91052437 2110.2371769 C717.96003364 2120.77141684 714.01115724 2131.30626081 710.06325912 2141.84147263 C698.4671625 2172.78565233 686.85170675 2203.72234472 675.19203949 2234.64263153 C666.62664321 2257.3576112 658.08359858 2280.08086491 649.5625 2302.8125 C649.14355972 2303.93010208 649.14355972 2303.93010208 648.71615601 2305.07028198 C646.17315585 2311.85439657 643.63049526 2318.63863839 641.08816528 2325.42300415 C637.14217824 2335.95308969 633.1947114 2346.48261937 629.24609375 2357.01171875 C628.96775192 2357.75393173 628.6894101 2358.49614471 628.40263367 2359.260849 C626.15411745 2365.25660749 623.90551064 2371.25233199 621.6568985 2377.2480545 C619.68919146 2382.49478064 617.72152545 2387.74152217 615.75390625 2392.98828125 C615.33642372 2394.10151009 615.33642372 2394.10151009 614.9105072 2395.23722839 C610.96002185 2405.77145104 607.0111509 2416.30627774 603.06325912 2426.84147263 C591.20743347 2458.47873914 579.33254167 2490.10863172 567.40814209 2521.72012329 C561.07784855 2538.50183727 554.76264078 2555.28906884 548.47265625 2572.0859375 C547.84411364 2573.76406128 547.21556348 2575.44218223 546.58700562 2577.12030029 C543.85654845 2584.41066507 541.12702158 2591.70137286 538.40145206 2598.99356651 C537.29129659 2601.96282972 536.17982668 2604.93159974 535.06805229 2607.90025711 C534.55354307 2609.27504688 534.03962564 2610.65005829 533.52635384 2612.02531052 C532.82125549 2613.91441494 532.11392173 2615.80268456 531.40649414 2617.69091797 C531.0119252 2618.74632782 530.61735626 2619.80173767 530.21083069 2620.88912964 C528.88658496 2624.29138631 527.43815492 2627.6443052 526 2631 C487.06 2631 448.12 2631 408 2631 C403.37588246 2619.43970615 398.77275322 2607.92210946 394.47363281 2596.24462891 C392.43333136 2590.71130065 390.38391422 2585.18138706 388.33203125 2579.65234375 C387.79435623 2578.20293396 387.79435623 2578.20293396 387.24581909 2576.72424316 C383.4530938 2566.50966089 379.6062877 2556.31572361 375.75 2546.125 C375.40125824 2545.20316925 375.05251648 2544.2813385 374.69320679 2543.33157349 C373.25062726 2539.51852637 371.80784391 2535.70555653 370.36463928 2531.89274597 C366.02671877 2520.43153229 361.70091915 2508.96574762 357.375 2497.5 C356.53589192 2495.2762032 355.69678056 2493.05240764 354.85766602 2490.82861328 C344.32164252 2462.90513395 333.79402809 2434.97848296 323.26564026 2407.05212402 C319.61468854 2397.36804685 315.96366568 2387.6839965 312.3125 2378 C311.9531669 2377.04693466 311.9531669 2377.04693466 311.58657455 2376.07461548 C304.32106313 2356.80425045 297.05196796 2337.53524005 289.77993774 2318.26733398 C282.77129669 2299.69710422 275.76770646 2281.12497286 268.76568604 2262.55224609 C261.84689258 2244.20032625 254.92538357 2225.84943422 248 2207.5 C240.8925362 2188.66790945 233.78864011 2169.83447581 226.6875 2151 C226.4481863 2150.36526764 226.2088726 2149.73053528 225.96230698 2149.0765686 C222.06327541 2138.73514086 218.16444631 2128.39363679 214.26564026 2118.05212402 C210.61468854 2108.36804685 206.96366568 2098.6839965 203.3125 2089 C202.9531669 2088.04693466 202.9531669 2088.04693466 202.58657455 2087.07461548 C195.72738603 2068.88194343 188.8652471 2050.69038674 182 2032.5 C174.89256316 2013.66789927 167.78864011 1994.83447582 160.6875 1976 C160.4481863 1975.36526764 160.2088726 1974.73053528 159.96230698 1974.0765686 C156.06327541 1963.73514086 152.16444631 1953.39363679 148.26564026 1943.05212402 C146.55470868 1938.51391187 144.84376598 1933.9757039 143.1328125 1929.4375 C142.89147835 1928.79737284 142.6501442 1928.15724567 142.40149689 1927.49772072 C139.74901901 1920.4621778 137.09638747 1913.42669288 134.44335938 1906.39135742 C134.20803623 1905.76732245 133.97271309 1905.14328749 133.73025894 1904.50034237 C132.5510434 1901.37328455 131.37181229 1898.2462326 130.19256592 1895.1191864 C127.40382905 1887.72388803 124.6161687 1880.32818497 121.82936096 1872.93215942 C120.03929567 1868.18187254 118.24852305 1863.4318525 116.45761108 1858.68188477 C115.63294028 1856.49417594 114.80856207 1854.30635679 113.98452759 1852.1184082 C113.60009491 1851.0977124 113.21566223 1850.0770166 112.81958008 1849.02539062 C112.48879959 1848.14685425 112.1580191 1847.26831787 111.81721497 1846.36315918 C106.60242494 1832.55163707 101.30018933 1818.78049226 96 1805 C95.67 2077.58 95.34 2350.16 95 2631 C39.23 2631 -16.54 2631 -74 2631 C-74 2229.72 -74 1828.44 -74 1415 C-13.61 1415 46.78 1415 109 1415 C127.50208956 1463.5679851 127.50208956 1463.5679851 135.83172607 1485.7109375 C137.45287752 1490.01985437 139.07525661 1494.32830851 140.69775391 1498.63671875 C142.69964935 1503.95280554 144.70129745 1509.26898533 146.70258141 1514.58530235 C152.31607657 1529.49724418 157.93418866 1544.40744612 163.5526123 1559.31753159 C164.37526783 1561.50071078 165.19789239 1563.68390164 166.02050781 1565.86709595 C175.53775079 1591.12541094 185.06449099 1616.38013382 194.59667969 1641.6328125 C198.31317127 1651.47872755 202.02850294 1661.32508032 205.74395752 1671.17138672 C207.82926087 1676.6976078 209.91463384 1682.22380261 212 1687.75 C212.83333367 1689.95833321 213.666667 1692.16666654 214.5 1694.375 C214.9125 1695.468125 215.325 1696.56125 215.75 1697.6875 C257 1807 298.25 1916.3125 419.5 2237.625 C419.91244965 2238.71798904 420.32489929 2239.81097809 420.74984741 2240.93708801 C421.58369609 2243.1467921 422.41753804 2245.35649873 423.25137329 2247.56620789 C425.32676686 2253.06608943 427.40227495 2258.5659277 429.47802734 2264.06567383 C433.32252892 2274.25211327 437.16598636 2284.43894249 441.00543213 2294.62728882 C442.78426835 2299.34739503 444.56374385 2304.06726012 446.34326172 2308.78710938 C447.17691113 2310.99874156 448.01026069 2313.2104868 448.84326172 2315.42236328 C453.36813344 2327.43706391 457.92149803 2339.44036106 462.5234375 2351.42578125 C463.17199203 2353.11709419 463.17199203 2353.11709419 463.83364868 2354.84257507 C464.2332077 2355.88106094 464.63276672 2356.91954681 465.04443359 2357.98950195 C465.3984726 2358.91036087 465.7525116 2359.83121979 466.11727905 2360.77998352 C466.95962706 2362.99016446 466.95962706 2362.99016446 468 2365 C468.32682266 2364.12109856 468.32682266 2364.12109856 468.6602478 2363.22444153 C479.93942616 2332.89653766 491.26635321 2302.58723994 502.6875 2272.3125 C504.88954702 2266.47534492 507.09152673 2260.63816453 509.29296875 2254.80078125 C509.56834473 2254.07059595 509.8437207 2253.34041065 510.12744141 2252.58809853 C516.60847645 2235.40088008 523.05506788 2218.20078135 529.5 2201 C538.57654906 2176.77663635 547.67930599 2152.56333266 556.80731201 2128.35931396 C565.39695816 2105.58236959 573.9583985 2082.79500368 582.5 2060 C591.30919762 2036.49086157 600.14122228 2012.99050047 609 1989.5 C618.08662602 1965.40485711 627.14822516 1941.30044791 636.1875 1917.1875 C636.47691845 1916.41548122 636.7663369 1915.64346245 637.0645256 1914.84804916 C642.11016342 1901.38874722 647.15415801 1887.92882986 652.19572449 1874.46800232 C653.65096198 1870.58270207 655.10656279 1866.69753809 656.5625 1862.8125 C656.83786591 1862.07768402 657.11323181 1861.34286804 657.39694214 1860.58578491 C661.49596292 1849.65026518 665.61088054 1838.72075442 669.73046875 1827.79296875 C669.98922853 1827.10656626 670.24798832 1826.42016376 670.51458931 1825.7129612 C672.70581248 1819.9004925 674.89716603 1814.08807296 677.08864212 1808.27569962 C685.91720185 1784.85972322 694.71904941 1761.43386905 703.5 1738 C712.57677603 1713.77672109 721.67930578 1689.5633332 730.80731201 1665.35931396 C739.39695816 1642.58236959 747.9583985 1619.79500368 756.5 1597 C765.5732248 1572.78625126 774.67157309 1548.58215249 783.79660034 1524.38787842 C790.40026374 1506.87879173 796.99317463 1489.36575354 803.5625 1471.84375 C803.87575226 1471.00824112 804.18900452 1470.17273224 804.51174927 1469.31190491 C807.56945968 1461.15585129 810.62595783 1452.99934426 813.68067932 1444.84217072 C814.79578379 1441.86467266 815.91127791 1438.88732067 817.02682495 1435.9099884 C817.79182963 1433.86768294 818.55620713 1431.82514351 819.32055664 1429.78259277 C819.77809326 1428.56140747 820.23562988 1427.34022217 820.70703125 1426.08203125 C821.1038208 1425.02218018 821.50061035 1423.9623291 821.90942383 1422.87036133 C822.91046722 1420.23564739 823.9532444 1417.61688901 825 1415 C884.73 1415 944.46 1415 1006 1415 C1006.33 2009.33 1006.66 2603.66 1007 3216 C1019.13687965 3209.93156018 1031.19331462 3203.88584673 1043.171875 3197.54101562 C1051.10986859 3193.34780476 1059.11934657 3189.29262944 1067.11859131 3185.21792603 C1072.0832258 3182.68870614 1077.04564687 3180.15515324 1082.0078125 3177.62109375 C1082.97647247 3177.12643112 1083.94513245 3176.63176849 1084.94314575 3176.12211609 C1093.29614232 3171.85385525 1101.62652143 3167.54349365 1109.94775391 3163.21362305 C1119.73702811 3158.12450712 1129.55522725 3153.09245142 1139.375 3148.0625 C1150.76130276 3142.2299434 1162.14148423 3136.38651234 1173.5 3130.5 C1185.66189058 3124.19739417 1197.84879859 3117.94433905 1210.04003906 3111.69873047 C1220.53771959 3106.32023919 1231.0273862 3100.9271518 1241.5 3095.5 C1253.66190355 3089.197419 1265.84879844 3082.94433913 1278.04003906 3076.69873047 C1288.53771959 3071.32023919 1299.0273862 3065.9271518 1309.5 3060.5 C1321.66190355 3054.197419 1333.84879844 3047.94433913 1346.04003906 3041.69873047 C1356.53771959 3036.32023919 1367.0273862 3030.9271518 1377.5 3025.5 C1389.66190355 3019.197419 1401.84879844 3012.94433913 1414.04003906 3006.69873047 C1424.53771959 3001.32023919 1435.0273862 2995.9271518 1445.5 2990.5 C1456.81726055 2984.63513263 1468.15547285 2978.81192545 1479.5 2973 C1491.92584376 2966.63383892 1504.3432018 2960.25216465 1516.73925209 2953.82815838 C1526.27990262 2948.88575095 1535.83011755 2943.96204873 1545.3828125 2939.04296875 C1546.90829147 2938.25729705 1548.43376351 2937.4716119 1549.95922852 2936.68591309 C1553.63940616 2934.79045428 1557.31967627 2932.89517514 1561 2931 C1561.15402091 2876.13421174 1561.30156441 2821.26840657 1561.44433594 2766.40258789 C1561.44713027 2765.32896183 1561.44992461 2764.25533577 1561.45280362 2763.14917558 C1561.75203325 2648.11438565 1562.01028389 2533.07959024 1562.18560791 2418.04454041 C1562.18951253 2415.48944782 1562.19341717 2412.93435524 1562.19732184 2410.37926266 C1562.27813549 2357.416696 1562.35349309 2304.45412261 1562.42203397 2251.49153865 C1562.42463209 2249.48394349 1562.42723054 2247.47634833 1562.42982922 2245.46875316 C1562.43111656 2244.47414301 1562.43111656 2244.47414301 1562.4324299 2243.45943973 C1562.46471459 2218.52721087 1562.49824091 2193.59498371 1562.53250836 2168.66275751 C1562.53623034 2165.95384541 1562.53993818 2163.2449333 1562.54363316 2160.53602117 C1562.630855 2096.59878975 1562.74038378 2032.66170893 1562.92260742 1968.72467041 C1562.92452359 1968.05178961 1562.92643976 1967.3789088 1562.928414 1966.68563767 C1562.99216988 1944.30957309 1563.05809363 1921.93351488 1563.12431633 1899.55745749 C1563.18414483 1879.33970842 1563.24319487 1859.12195737 1563.2996788 1838.90419865 C1563.30153468 1838.24002268 1563.30339056 1837.57584671 1563.30530268 1836.8915442 C1563.42134083 1795.29139515 1563.50361559 1753.69125819 1563.55191422 1712.09097195 C1563.55416269 1710.16361183 1563.55416269 1710.16361183 1563.55645658 1708.19731515 C1563.5890972 1679.99117854 1563.61415347 1651.78504047 1563.63202752 1623.57889079 C1563.63935298 1612.22985903 1563.64777034 1600.88082812 1563.65656281 1589.53179741 C1563.65749877 1588.28969185 1563.65843473 1587.04758629 1563.65939905 1585.76784117 C1563.69010436 1545.74005105 1563.80970921 1505.71313164 1563.97590184 1465.68569297 C1564.14289464 1425.36758614 1564.22278519 1385.0503243 1564.18147166 1344.73186284 C1564.17578535 1339.16118352 1564.17109867 1333.59050378 1564.16701508 1328.01982307 C1564.16576009 1326.38179548 1564.16576009 1326.38179548 1564.16447976 1324.71067641 C1564.15381825 1307.41372248 1564.23740972 1290.11855559 1564.36027615 1272.82208872 C1564.47914153 1255.81643587 1564.49832198 1238.81310039 1564.41129078 1221.80722829 C1564.36325944 1211.83345296 1564.39190431 1201.86702281 1564.53407605 1191.89410455 C1564.62088197 1185.26780094 1564.60582623 1178.64674016 1564.50843003 1172.02059723 C1564.45602379 1168.26171841 1564.44631476 1164.51707737 1564.56258686 1160.75930868 C1564.99490499 1147.46895317 1564.99490499 1147.46895317 1561 1135 C1554.05057549 1127.88708678 1545.22517378 1123.62424635 1536.27721743 1119.53027367 C1532.07251221 1117.56691609 1528.17512303 1115.24340909 1524.25 1112.78125 C1523.03072143 1112.05574515 1521.8096574 1111.33322263 1520.5859375 1110.61523438 C1508.76943152 1103.64623326 1497.00395489 1096.59955421 1485.29101562 1089.45800781 C1475.90157441 1083.73548064 1466.46261639 1078.10060119 1457 1072.5 C1446.38869902 1066.21953143 1435.81900773 1059.877075 1425.29101562 1053.45800781 C1415.90157441 1047.73548064 1406.46261639 1042.10060119 1397 1036.5 C1386.38869902 1030.21953143 1375.81900773 1023.877075 1365.29101562 1017.45800781 C1355.90157441 1011.73548064 1346.46261639 1006.10060119 1337 1000.5 C1326.38869902 994.21953143 1315.81900773 987.877075 1305.29101562 981.45800781 C1295.90157441 975.73548064 1286.46261639 970.10060119 1277 964.5 C1266.38869902 958.21953143 1255.81900773 951.877075 1245.29101562 945.45800781 C1235.90157441 939.73548064 1226.46261639 934.10060119 1217 928.5 C1206.38869902 922.21953143 1195.81900773 915.877075 1185.29101562 909.45800781 C1175.90157441 903.73548064 1166.46261639 898.10060119 1157 892.5 C1146.38869902 886.21953143 1135.81900773 879.877075 1125.29101562 873.45800781 C1115.90157441 867.73548064 1106.46261639 862.10060119 1097 856.5 C1086.38869902 850.21953143 1075.81900773 843.877075 1065.29101562 837.45800781 C1055.90157441 831.73548064 1046.46261639 826.10060119 1037 820.5 C1026.38869902 814.21953143 1015.81900773 807.877075 1005.29101562 801.45800781 C995.90157441 795.73548064 986.46261639 790.10060119 977 784.5 C966.38869902 778.21953143 955.81900773 771.877075 945.29101562 765.45800781 C935.90157441 759.73548064 926.46261639 754.10060119 917 748.5 C906.38869902 742.21953143 895.81900773 735.877075 885.29101562 729.45800781 C875.90157441 723.73548064 866.46261639 718.10060119 857 712.5 C846.38869902 706.21953143 835.81900773 699.877075 825.29101562 693.45800781 C815.90157441 687.73548064 806.46261639 682.10060119 797 676.5 C786.38869902 670.21953143 775.81900773 663.877075 765.29101562 657.45800781 C755.90157441 651.73548064 746.46261639 646.10060119 737 640.5 C726.38869902 634.21953143 715.81900773 627.877075 705.29101562 621.45800781 C695.90157441 615.73548064 686.46261639 610.10060119 677 604.5 C666.38869902 598.21953143 655.81900773 591.877075 645.29101562 585.45800781 C635.90157441 579.73548064 626.46261639 574.10060119 617 568.5 C606.38869902 562.21953143 595.81900773 555.877075 585.29101562 549.45800781 C575.90157441 543.73548064 566.46261639 538.10060119 557 532.5 C546.38869902 526.21953143 535.81900773 519.877075 525.29101562 513.45800781 C515.90157441 507.73548064 506.46261639 502.10060119 497 496.5 C486.38869902 490.21953143 475.81900773 483.877075 465.29101562 477.45800781 C455.90157441 471.73548064 446.46261639 466.10060119 437 460.5 C426.38869902 454.21953143 415.81900773 447.877075 405.29101562 441.45800781 C395.90157441 435.73548064 386.46261639 430.10060119 377 424.5 C366.38869902 418.21953143 355.81900773 411.877075 345.29101562 405.45800781 C335.90157441 399.73548064 326.46261639 394.10060119 317 388.5 C306.38869902 382.21953143 295.81900773 375.877075 285.29101562 369.45800781 C275.90157441 363.73548064 266.46261639 358.10060119 257 352.5 C246.38869902 346.21953143 235.81900773 339.877075 225.29101562 333.45800781 C215.90157441 327.73548064 206.46261639 322.10060119 197 316.5 C186.38869902 310.21953143 175.81900773 303.877075 165.29101562 297.45800781 C155.90157441 291.73548064 146.46261639 286.10060119 137 280.5 C126.38869902 274.21953143 115.81900773 267.877075 105.29101562 261.45800781 C95.90157441 255.73548064 86.46261639 250.10060119 77 244.5 C66.96303116 238.55945911 56.95850348 232.57117492 47 226.5 C36.64074182 220.18792329 26.24158429 213.94605364 15.8125 207.75 C15.13227783 207.34531494 14.45205566 206.94062988 13.7512207 206.52368164 C13.08888428 206.12979248 12.42654785 205.73590332 11.74414062 205.33007812 C11.10042511 204.94676834 10.45670959 204.56345856 9.79348755 204.16853333 C8.54308263 203.42995546 7.28832497 202.69868992 6.02902222 201.97538757 C3.41385099 200.47092035 0.9384704 198.952638 -1.45458984 197.1105957 C-3.73464326 195.43445254 -5.20663945 194.48299328 -8 194 C-12.86494592 195.43112818 -16.97517217 198.02900803 -21.25 200.6875 C-22.52823257 201.44346871 -23.80888591 202.1953576 -25.09179688 202.94335938 C-27.755106 204.50046811 -30.40714173 206.07461225 -33.05273438 207.66162109 C-38.52465218 210.92622802 -44.11382223 213.97199603 -49.7076416 217.02114868 C-52.72749669 218.67036635 -55.73823651 220.33606675 -58.75 222 C-59.95829046 222.66674437 -61.16662378 223.33341107 -62.375 224 C-62.973125 224.33 -63.57125 224.66 -64.1875 225 C-153.90625 274.5 -153.90625 274.5 -1461.625 996 C-1462.22311493 996.32999496 -1462.82122986 996.65998993 -1463.43746948 996.99998474 C-1464.64590276 997.6667055 -1465.85433782 998.33342303 -1467.06277466 999.00013733 C-1470.08209344 1000.66594998 -1473.10138134 1002.33181854 -1476.12060547 1003.99780273 C-1481.57504764 1007.00744972 -1487.02970302 1010.01670659 -1492.48553467 1013.02383423 C-1494.94417531 1014.37902687 -1497.40263414 1015.73454917 -1499.86108398 1017.09008789 C-1501.50422244 1017.99591771 -1503.14760921 1018.90129705 -1504.79101562 1019.80664062 C-1517.5450854 1026.83940189 -1530.26807444 1033.92670802 -1543 1041 C-1543.33 1649.85 -1543.66 2258.7 -1544 2886 C-1542.35 2886.66 -1540.7 2887.32 -1539 2888 C-1537.13501929 2888.96691315 -1535.28572798 2889.96442013 -1533.44921875 2890.984375 C-1532.37075684 2891.58258057 -1531.29229492 2892.18078613 -1530.18115234 2892.79711914 C-1529.0164714 2893.44784652 -1527.85192404 2894.09881303 -1526.6875 2894.75 C-1525.79288055 2895.24836868 -1525.79288055 2895.24836868 -1524.88018799 2895.75680542 C-1515.49192357 2900.98748127 -1506.18787507 2906.35193058 -1496.92260742 2911.79785156 C-1489.83166502 2915.95737231 -1482.68353735 2920.00277194 -1475.5 2924 C-1466.27065229 2929.13625165 -1457.12762875 2934.40212624 -1448.01953125 2939.75 C-1440.8947181 2943.92243959 -1433.71453859 2947.98495244 -1426.5 2952 C-1417.27068598 2957.13631389 -1408.12763027 2962.40212535 -1399.01953125 2967.75 C-1391.8947181 2971.92243959 -1384.71453859 2975.98495244 -1377.5 2980 C-1368.27068598 2985.13631389 -1359.12763027 2990.40212535 -1350.01953125 2995.75 C-1342.8947181 2999.92243959 -1335.71453859 3003.98495244 -1328.5 3008 C-1319.27068598 3013.13631389 -1310.12763027 3018.40212535 -1301.01953125 3023.75 C-1293.8947181 3027.92243959 -1286.71453859 3031.98495244 -1279.5 3036 C-1270.27068598 3041.13631389 -1261.12763027 3046.40212535 -1252.01953125 3051.75 C-1244.8947181 3055.92243959 -1237.71453859 3059.98495244 -1230.5 3064 C-1221.27068598 3069.13631389 -1212.12763027 3074.40212535 -1203.01953125 3079.75 C-1195.8947181 3083.92243959 -1188.71453859 3087.98495244 -1181.5 3092 C-1172.27068598 3097.13631389 -1163.12763027 3102.40212535 -1154.01953125 3107.75 C-1146.8947181 3111.92243959 -1139.71453859 3115.98495244 -1132.5 3120 C-1123.27068598 3125.13631389 -1114.12763027 3130.40212535 -1105.01953125 3135.75 C-1097.8947181 3139.92243959 -1090.71453859 3143.98495244 -1083.5 3148 C-1074.27068598 3153.13631389 -1065.12763027 3158.40212535 -1056.01953125 3163.75 C-1048.8947181 3167.92243959 -1041.71453859 3171.98495244 -1034.5 3176 C-1025.27068598 3181.13631389 -1016.12763027 3186.40212535 -1007.01953125 3191.75 C-999.8947181 3195.92243959 -992.71453859 3199.98495244 -985.5 3204 C-976.27068598 3209.13631389 -967.12763027 3214.40212535 -958.01953125 3219.75 C-950.8947181 3223.92243959 -943.71453859 3227.98495244 -936.5 3232 C-927.27068598 3237.13631389 -918.12763027 3242.40212535 -909.01953125 3247.75 C-901.8947181 3251.92243959 -894.71453859 3255.98495244 -887.5 3260 C-878.27068598 3265.13631389 -869.12763027 3270.40212535 -860.01953125 3275.75 C-852.8947181 3279.92243959 -845.71453859 3283.98495244 -838.5 3288 C-829.27068598 3293.13631389 -820.12763027 3298.40212535 -811.01953125 3303.75 C-803.8947181 3307.92243959 -796.71453859 3311.98495244 -789.5 3316 C-780.27068598 3321.13631389 -771.12763027 3326.40212535 -762.01953125 3331.75 C-754.8947181 3335.92243959 -747.71453859 3339.98495244 -740.5 3344 C-731.27068598 3349.13631389 -722.12763027 3354.40212535 -713.01953125 3359.75 C-705.8947181 3363.92243959 -698.71453859 3367.98495244 -691.5 3372 C-682.27068598 3377.13631389 -673.12763027 3382.40212535 -664.01953125 3387.75 C-656.8947181 3391.92243959 -649.71453859 3395.98495244 -642.5 3400 C-633.27068598 3405.13631389 -624.12763027 3410.40212535 -615.01953125 3415.75 C-607.8947181 3419.92243959 -600.71453859 3423.98495244 -593.5 3428 C-584.27068598 3433.13631389 -575.12763027 3438.40212535 -566.01953125 3443.75 C-558.8947181 3447.92243959 -551.71453859 3451.98495244 -544.5 3456 C-535.27068598 3461.13631389 -526.12763027 3466.40212535 -517.01953125 3471.75 C-509.8947181 3475.92243959 -502.71453859 3479.98495244 -495.5 3484 C-486.27068598 3489.13631389 -477.12763027 3494.40212535 -468.01953125 3499.75 C-460.8947181 3503.92243959 -453.71453859 3507.98495244 -446.5 3512 C-437.27068598 3517.13631389 -428.12763027 3522.40212535 -419.01953125 3527.75 C-411.8947181 3531.92243959 -404.71453859 3535.98495244 -397.5 3540 C-388.27068598 3545.13631389 -379.12763027 3550.40212535 -370.01953125 3555.75 C-362.8947181 3559.92243959 -355.71453859 3563.98495244 -348.5 3568 C-339.27068598 3573.13631389 -330.12763027 3578.40212535 -321.01953125 3583.75 C-313.8947181 3587.92243959 -306.71453859 3591.98495244 -299.5 3596 C-290.27068598 3601.13631389 -281.12763027 3606.40212535 -272.01953125 3611.75 C-264.8947181 3615.92243959 -257.71453859 3619.98495244 -250.5 3624 C-241.27068598 3629.13631389 -232.12763027 3634.40212535 -223.01953125 3639.75 C-215.8947181 3643.92243959 -208.71453859 3647.98495244 -201.5 3652 C-192.27068598 3657.13631389 -183.12763027 3662.40212535 -174.01953125 3667.75 C-166.8947181 3671.92243959 -159.71453859 3675.98495244 -152.5 3680 C-143.27068598 3685.13631389 -134.12763027 3690.40212535 -125.01953125 3695.75 C-117.89471647 3699.92244055 -110.71450885 3703.98489582 -103.5 3708 C-70.67224991 3726.27239098 -70.67224991 3726.27239098 -64.57128906 3730.80395508 C-62.01238561 3732.30621654 -62.01238561 3732.30621654 -59.08374023 3731.38989258 C-55.87663241 3729.94439619 -52.76261885 3728.42101388 -49.66015625 3726.76171875 C-49.06533447 3726.44477554 -48.4705127 3726.12783234 -47.85766602 3725.80128479 C-45.92323209 3724.76833357 -43.99277107 3723.7282067 -42.0625 3722.6875 C-40.70961431 3721.96245263 -39.35666766 3721.23751899 -38.00366211 3720.51269531 C-29.01999752 3715.6874319 -20.12586545 3710.71773759 -11.27368164 3705.6550293 C-3.81486068 3701.40853088 3.76769891 3697.43834765 11.39648438 3693.50756836 C17.99868814 3690.08872941 24.48584538 3686.50671641 30.9375 3682.8125 C40.21839389 3677.50301048 49.61054865 3672.43327665 59.0625 3667.4375 C60.09538651 3666.89151657 60.09538651 3666.89151657 61.1491394 3666.33450317 C61.83460846 3665.97218597 62.52007751 3665.60986877 63.22631836 3665.23657227 C64.58971209 3664.51584659 65.95307508 3663.79506275 67.31640625 3663.07421875 C67.98053024 3662.72309525 68.64465424 3662.37197174 69.3289032 3662.01020813 C76.83152908 3658.03847653 84.27919874 3653.96798423 91.72265625 3649.88671875 C95.430996 3647.85378752 99.1479175 3645.83766177 102.87109375 3643.83203125 C112.82788185 3638.46709468 122.73842493 3633.04228761 132.5625 3627.4375 C141.07338969 3622.58439867 149.69085543 3617.99310842 158.39941406 3613.50610352 C164.95971241 3610.10916199 171.4037299 3606.54887532 177.8125 3602.875 C187.43092559 3597.36528562 197.18939293 3592.15592476 207 3587 C216.62014079 3581.9433217 226.19561669 3576.84496092 235.625 3571.4375 C246.03748384 3565.46727025 256.6189969 3559.84319162 267.22900391 3554.23510742 C268.59150164 3553.51486849 269.95396945 3552.79457293 271.31640625 3552.07421875 C271.98047485 3551.72312546 272.64454346 3551.37203217 273.32873535 3551.01029968 C280.83141335 3547.03853019 288.27914276 3542.96801493 295.72265625 3538.88671875 C299.430996 3536.85378752 303.1479175 3534.83766177 306.87109375 3532.83203125 C316.82788185 3527.46709468 326.73842493 3522.04228761 336.5625 3516.4375 C345.07338969 3511.58439867 353.69085543 3506.99310842 362.39941406 3502.50610352 C368.95970666 3499.10916497 375.40380677 3495.54900568 381.8125 3491.875 C393.0710051 3485.42310613 404.528769 3479.36988533 416.0246582 3473.35498047 C417.41639073 3472.62507921 418.80791522 3471.89478116 420.19921875 3471.1640625 C420.86792496 3470.81338715 421.53663116 3470.46271179 422.2256012 3470.10140991 C427.48350016 3467.32300791 432.586234 3464.33929192 437.65551758 3461.22802734 C440 3460 440 3460 443 3460 C443.53403442 3461.00075562 443.53403442 3461.00075562 444.07885742 3462.02172852 C450.47025804 3473.98375658 456.8965086 3485.91084374 463.625 3497.6875 C468.45929581 3506.15608911 473.02824153 3514.73226354 477.49414062 3523.39990234 C480.89101522 3529.96003337 484.45127176 3536.40385351 488.125 3542.8125 C494.11046563 3553.26341506 499.74980546 3563.88173609 505.35864258 3574.53744507 C511.09769648 3585.43962244 516.9230173 3596.28130187 523 3607 C520.32736792 3609.8731462 517.88972542 3611.80301427 514.38671875 3613.55859375 C513.48139404 3614.01959473 512.57606934 3614.4805957 511.64331055 3614.95556641 C510.66789307 3615.44460449 509.69247559 3615.93364258 508.6875 3616.4375 C500.74699581 3620.49521903 492.91844239 3624.68129591 485.1875 3629.125 C475.56979075 3634.63589258 465.81055486 3639.84410268 456 3645 C446.37985921 3650.0566783 436.80438331 3655.15503908 427.375 3660.5625 C416.96251616 3666.53272975 406.3810031 3672.15680838 395.77099609 3677.76489258 C394.40849836 3678.48513151 393.04603055 3679.20542707 391.68359375 3679.92578125 C390.68749084 3680.45242119 390.68749084 3680.45242119 389.67126465 3680.98970032 C382.16858665 3684.96146981 374.72085724 3689.03198507 367.27734375 3693.11328125 C363.569004 3695.14621248 359.8520825 3697.16233823 356.12890625 3699.16796875 C346.17211815 3704.53290532 336.26157507 3709.95771239 326.4375 3715.5625 C317.92661031 3720.41560133 309.30914457 3725.00689158 300.60058594 3729.49389648 C294.04028759 3732.89083801 287.5962701 3736.45112468 281.1875 3740.125 C271.56907441 3745.63471438 261.81060707 3750.84407524 252 3756 C242.37985921 3761.0566783 232.80438331 3766.15503908 223.375 3771.5625 C212.96251616 3777.53272975 202.3810031 3783.15680838 191.77099609 3788.76489258 C190.40849836 3789.48513151 189.04603055 3790.20542707 187.68359375 3790.92578125 C187.01952515 3791.27687454 186.35545654 3791.62796783 185.67126465 3791.98970032 C178.16858665 3795.96146981 170.72085724 3800.03198507 163.27734375 3804.11328125 C159.569004 3806.14621248 155.8520825 3808.16233823 152.12890625 3810.16796875 C142.17211815 3815.53290532 132.26157507 3820.95771239 122.4375 3826.5625 C113.92803336 3831.41478988 105.31199894 3836.00528643 96.60498047 3840.49169922 C90.00226525 3843.91074334 83.51463011 3847.49301132 77.0625 3851.1875 C67.78160611 3856.49698952 58.38945135 3861.56672335 48.9375 3866.5625 C47.90461349 3867.10848343 47.90461349 3867.10848343 46.8508606 3867.66549683 C46.16539154 3868.02781403 45.47992249 3868.39013123 44.77368164 3868.76342773 C43.41028791 3869.48415341 42.04692492 3870.20493725 40.68359375 3870.92578125 C40.01946976 3871.27690475 39.35534576 3871.62802826 38.6710968 3871.98979187 C31.16847092 3875.96152347 23.72080126 3880.03201577 16.27734375 3884.11328125 C12.569004 3886.14621248 8.8520825 3888.16233823 5.12890625 3890.16796875 C-5.77992908 3896.04588931 -16.6145945 3902.02704417 -27.37719727 3908.16870117 C-35.45050815 3912.7483966 -43.64958381 3917.06465234 -51.90454102 3921.30688477 C-52.82033936 3921.77795654 -53.7361377 3922.24902832 -54.6796875 3922.734375 C-55.89760986 3923.35650879 -55.89760986 3923.35650879 -57.14013672 3923.99121094 C-58.95783424 3924.86302516 -58.95783424 3924.86302516 -60 3926 C-67.03032048 3925.87615967 -72.00757243 3922.40176025 -77.875 3918.8125 C-80.02741545 3917.52528412 -82.18110134 3916.24019067 -84.3359375 3914.95703125 C-85.43905273 3914.29783691 -86.54216797 3913.63864258 -87.67871094 3912.95947266 C-92.90032934 3909.87885598 -98.19804275 3906.9394638 -103.5 3904 C-112.73020681 3898.86532968 -121.87240856 3893.59785185 -130.98046875 3888.25 C-138.1052819 3884.07756041 -145.28546141 3880.01504756 -152.5 3876 C-161.72931402 3870.86368611 -170.87236973 3865.59787465 -179.98046875 3860.25 C-187.1052819 3856.07756041 -194.28546141 3852.01504756 -201.5 3848 C-210.72931402 3842.86368611 -219.87236973 3837.59787465 -228.98046875 3832.25 C-236.1052819 3828.07756041 -243.28546141 3824.01504756 -250.5 3820 C-259.72931402 3814.86368611 -268.87236973 3809.59787465 -277.98046875 3804.25 C-285.1052819 3800.07756041 -292.28546141 3796.01504756 -299.5 3792 C-308.72931402 3786.86368611 -317.87236973 3781.59787465 -326.98046875 3776.25 C-334.1052819 3772.07756041 -341.28546141 3768.01504756 -348.5 3764 C-357.72931402 3758.86368611 -366.87236973 3753.59787465 -375.98046875 3748.25 C-383.1052819 3744.07756041 -390.28546141 3740.01504756 -397.5 3736 C-406.72931402 3730.86368611 -415.87236973 3725.59787465 -424.98046875 3720.25 C-432.1052819 3716.07756041 -439.28546141 3712.01504756 -446.5 3708 C-455.72931402 3702.86368611 -464.87236973 3697.59787465 -473.98046875 3692.25 C-481.1052819 3688.07756041 -488.28546141 3684.01504756 -495.5 3680 C-504.72931402 3674.86368611 -513.87236973 3669.59787465 -522.98046875 3664.25 C-530.1052819 3660.07756041 -537.28546141 3656.01504756 -544.5 3652 C-553.72931402 3646.86368611 -562.87236973 3641.59787465 -571.98046875 3636.25 C-579.1052819 3632.07756041 -586.28546141 3628.01504756 -593.5 3624 C-602.72931402 3618.86368611 -611.87236973 3613.59787465 -620.98046875 3608.25 C-628.1052819 3604.07756041 -635.28546141 3600.01504756 -642.5 3596 C-651.72931402 3590.86368611 -660.87236973 3585.59787465 -669.98046875 3580.25 C-677.1052819 3576.07756041 -684.28546141 3572.01504756 -691.5 3568 C-700.72931402 3562.86368611 -709.87236973 3557.59787465 -718.98046875 3552.25 C-726.1052819 3548.07756041 -733.28546141 3544.01504756 -740.5 3540 C-749.72931402 3534.86368611 -758.87236973 3529.59787465 -767.98046875 3524.25 C-775.1052819 3520.07756041 -782.28546141 3516.01504756 -789.5 3512 C-798.72931402 3506.86368611 -807.87236973 3501.59787465 -816.98046875 3496.25 C-824.1052819 3492.07756041 -831.28546141 3488.01504756 -838.5 3484 C-847.72931402 3478.86368611 -856.87236973 3473.59787465 -865.98046875 3468.25 C-873.1052819 3464.07756041 -880.28546141 3460.01504756 -887.5 3456 C-896.72931402 3450.86368611 -905.87236973 3445.59787465 -914.98046875 3440.25 C-922.1052819 3436.07756041 -929.28546141 3432.01504756 -936.5 3428 C-945.72931402 3422.86368611 -954.87236973 3417.59787465 -963.98046875 3412.25 C-971.1052819 3408.07756041 -978.28546141 3404.01504756 -985.5 3400 C-994.72931402 3394.86368611 -1003.87236973 3389.59787465 -1012.98046875 3384.25 C-1020.1052819 3380.07756041 -1027.28546141 3376.01504756 -1034.5 3372 C-1043.72931402 3366.86368611 -1052.87236973 3361.59787465 -1061.98046875 3356.25 C-1069.1052819 3352.07756041 -1076.28546141 3348.01504756 -1083.5 3344 C-1092.72931402 3338.86368611 -1101.87236973 3333.59787465 -1110.98046875 3328.25 C-1118.1052819 3324.07756041 -1125.28546141 3320.01504756 -1132.5 3316 C-1141.72931402 3310.86368611 -1150.87236973 3305.59787465 -1159.98046875 3300.25 C-1167.1052819 3296.07756041 -1174.28546141 3292.01504756 -1181.5 3288 C-1190.72931402 3282.86368611 -1199.87236973 3277.59787465 -1208.98046875 3272.25 C-1216.1052819 3268.07756041 -1223.28546141 3264.01504756 -1230.5 3260 C-1239.72931402 3254.86368611 -1248.87236973 3249.59787465 -1257.98046875 3244.25 C-1265.1052819 3240.07756041 -1272.28546141 3236.01504756 -1279.5 3232 C-1288.72931402 3226.86368611 -1297.87236973 3221.59787465 -1306.98046875 3216.25 C-1314.1052819 3212.07756041 -1321.28546141 3208.01504756 -1328.5 3204 C-1337.72931402 3198.86368611 -1346.87236973 3193.59787465 -1355.98046875 3188.25 C-1363.1052819 3184.07756041 -1370.28546141 3180.01504756 -1377.5 3176 C-1386.72931402 3170.86368611 -1395.87236973 3165.59787465 -1404.98046875 3160.25 C-1412.1052819 3156.07756041 -1419.28546141 3152.01504756 -1426.5 3148 C-1435.72931402 3142.86368611 -1444.87236973 3137.59787465 -1453.98046875 3132.25 C-1461.1052819 3128.07756041 -1468.28546141 3124.01504756 -1475.5 3120 C-1484.72931402 3114.86368611 -1493.87236973 3109.59787465 -1502.98046875 3104.25 C-1510.1052819 3100.07756041 -1517.28546141 3096.01504756 -1524.5 3092 C-1533.72931402 3086.86368611 -1542.87236973 3081.59787465 -1551.98046875 3076.25 C-1559.1052819 3072.07756041 -1566.28546141 3068.01504756 -1573.5 3064 C-1582.72931402 3058.86368611 -1591.87236973 3053.59787465 -1600.98046875 3048.25 C-1608.1052819 3044.07756041 -1615.28546141 3040.01504756 -1622.5 3036 C-1631.72931402 3030.86368611 -1640.87236973 3025.59787465 -1649.98046875 3020.25 C-1657.10528353 3016.07755945 -1664.28549115 3012.01510418 -1671.5 3008 C-1683.76719628 3001.17190468 -1695.91474298 2994.14501672 -1708 2987 C-1709.29166128 2986.39192127 -1709.29166128 2986.39192127 -1710.60941673 2985.77155812 C-1713 2984 -1713 2984 -1713.62432562 2981.42099512 C-1713.62400559 2980.37506359 -1713.62368556 2979.32913206 -1713.62335582 2978.25150563 C-1713.63512031 2977.04195407 -1713.64688479 2975.83240251 -1713.65900577 2974.58619787 C-1713.64676994 2973.23333748 -1713.63408188 2971.88048112 -1713.62099248 2970.52762872 C-1713.6253176 2969.09070227 -1713.63183653 2967.65378103 -1713.64035742 2966.21687333 C-1713.65752409 2962.23417407 -1713.64323005 2958.25209345 -1713.62418725 2954.26942518 C-1713.60894122 2949.93342821 -1713.62264055 2945.59750951 -1713.63272163 2941.26151088 C-1713.64643877 2933.62148991 -1713.64138939 2925.98165491 -1713.62441591 2918.34164313 C-1713.59910527 2906.90432726 -1713.60253597 2895.46714511 -1713.61174879 2884.0298114 C-1713.62660613 2864.54131857 -1713.61768068 2845.05290042 -1713.59602737 2825.56441689 C-1713.57416814 2805.80377851 -1713.56316081 2786.04317875 -1713.56553841 2766.28252792 C-1713.56568187 2765.03633271 -1713.56582533 2763.7901375 -1713.56597314 2762.50617879 C-1713.56675497 2756.15228549 -1713.56771472 2749.79839222 -1713.56873732 2743.44449895 C-1713.57578251 2697.40549366 -1713.55859412 2651.36653241 -1713.52865028 2605.32753944 C-1713.52125453 2593.9365872 -1713.51394786 2582.54563491 -1713.50696969 2571.1546824 C-1713.50653586 2570.44660637 -1713.50610202 2569.73853034 -1713.50565504 2569.00899747 C-1713.48567616 2536.22258805 -1713.47851173 2503.4361797 -1713.47463985 2470.64976489 C-1713.47438604 2468.50608881 -1713.47412621 2466.36241274 -1713.47386482 2464.21873666 C-1713.47229436 2451.29252716 -1713.47085751 2438.36631766 -1713.46957495 2425.44010813 C-1713.46638053 2393.30406948 -1713.46158311 2361.16803118 -1713.45569897 2329.03199291 C-1713.4555658 2328.30036071 -1713.45543263 2327.56872851 -1713.45529543 2326.81492564 C-1713.44665606 2279.4203602 -1713.43141671 2232.02579963 -1713.41065693 2184.63123798 C-1713.41032548 2183.87442171 -1713.40999404 2183.11760544 -1713.40965255 2182.33785534 C-1713.39954891 2159.29929827 -1713.38895705 2136.26074143 -1713.37826971 2113.22218463 C-1713.36644495 2087.72706197 -1713.35470346 2062.23193927 -1713.34332275 2036.73681641 C-1713.34298026 2035.97017866 -1713.34263776 2035.20354092 -1713.34228488 2034.41367173 C-1713.30978849 1961.61305223 -1713.29073135 1888.81243118 -1713.27515383 1816.01180632 C-1713.27449311 1812.92858001 -1713.27382851 1809.84535371 -1713.27316374 1806.7621274 C-1713.26704677 1778.38981237 -1713.26108761 1750.01749731 -1713.25532665 1721.64518221 C-1713.25517345 1720.89074287 -1713.25502024 1720.13630353 -1713.2548624 1719.35900239 C-1713.25439859 1717.07476307 -1713.25393484 1714.79052374 -1713.25347109 1712.50628442 C-1713.24094153 1650.79490627 -1713.22703552 1589.08352846 -1713.2122379 1527.37215081 C-1713.21171614 1525.19474096 -1713.21119543 1523.01733111 -1713.21067504 1520.83992126 C-1713.19376761 1450.11467599 -1713.17438064 1379.38943204 -1713.0793457 1128.4934082 C-1713.07884603 1127.26856972 -1713.07834635 1126.04373123 -1713.07783153 1124.78177643 C-1713.05282818 1063.52118388 -1713.02695779 1002.26059172 -1713 941 C-1710.46777368 939.57480598 -1707.93545179 938.14978222 -1705.40307617 936.72485352 C-1704.69398857 936.32574013 -1703.98490097 935.92662674 -1703.25432587 935.51541901 C-1696.9515475 931.96923618 -1690.63564366 928.44726041 -1684.3125 924.9375 C-1683.17022949 924.30320068 -1682.02795898 923.66890137 -1680.85107422 923.01538086 C-1668.79927397 916.32574138 -1656.72887876 909.66983924 -1644.65722656 903.01611328 C-1639.20739394 900.0120725 -1633.75899316 897.00543653 -1628.31048584 893.99899292 C-1625.29038271 892.33255534 -1622.27018665 890.66628621 -1619.25 889 C-1618.04166622 888.33333414 -1616.83333289 887.66666747 -1615.625 887 C-1555.8125 854 -1496 821 -69.56277466 34.00015259 C-68.35352461 33.33297945 -67.14427575 32.66580415 -65.93502808 31.99862671 C-62.92823017 30.33969152 -59.92141213 28.68079284 -56.91455078 27.02197266 C-51.30996314 23.92999335 -45.7055702 20.8376628 -40.10186768 17.74407959 C-37.48799161 16.3010901 -34.8740046 14.85830167 -32.26000977 13.41552734 C-31.02769555 12.73528862 -29.7954342 12.0549541 -28.56323242 11.37451172 C-25.75688207 9.82481166 -22.94917601 8.27803127 -20.13574219 6.74121094 C-18.05076047 5.58346494 -15.98312655 4.39389289 -13.93457031 3.17285156 C-12.97905273 2.61307617 -12.02353516 2.05330078 -11.0390625 1.4765625 C-10.20842285 0.97463379 -9.3777832 0.47270508 -8.52197266 -0.04443359 C-5.18154576 -1.31010938 -3.42442446 -0.97647917 0 0 Z " fill="#2D8FCE" transform="translate(2491,508)"/>
<path d="M0 0 C441.0492794 0 441.0492794 0 526 29 C527.02689941 29.34788574 528.05379883 29.69577148 529.11181641 30.05419922 C545.13895691 35.52340147 560.60563431 41.95699856 576 49 C576.84755859 49.38124023 577.69511719 49.76248047 578.56835938 50.15527344 C629.61571424 73.12039307 675.50286582 107.31200842 714.9465332 146.76123047 C716.69138808 148.50388317 718.44413743 150.23833163 720.19726562 151.97265625 C726.20799592 157.95417279 731.87512503 164.00182272 737.13305664 170.66552734 C738.92520112 172.90646961 740.80002075 175.0211393 742.75 177.125 C763.60300512 200.37775571 780.80145341 227.82763284 796 255 C796.7415332 256.31266846 796.7415332 256.31266846 797.49804688 257.65185547 C837.18559521 328.13103572 860.25561097 406.47921151 852 833 C832.03865484 903.56598979 799.82855042 971.52315633 754 1029 C753.21496094 1029.98613281 752.42992188 1030.97226563 751.62109375 1031.98828125 C749.44120644 1034.68291834 747.2304371 1037.34707396 745 1040 C744.56397461 1040.52094238 744.12794922 1041.04188477 743.67871094 1041.57861328 C729.99160366 1057.8956616 715.51459158 1074.3455836 699.21875 1088.12109375 C697.38395677 1089.67485351 695.57941703 1091.25209233 693.78125 1092.84765625 C684.52135041 1101.03201165 674.91764203 1108.63096391 665 1116 C664.28473145 1116.53625 663.56946289 1117.0725 662.83251953 1117.625 C650.98757883 1126.48540968 638.70537286 1134.43189414 626 1142 C624.76588379 1142.73984131 624.76588379 1142.73984131 623.50683594 1143.49462891 C438.20988558 1254.00127294 201.6014721 1216 0 1216 C0 814.72 0 413.44 0 0 Z M169 163 C169 456.7 169 750.4 169 1053 C339.41009571 1059.71603391 339.41009571 1059.71603391 501 1021 C502.19737793 1020.48421387 502.19737793 1020.48421387 503.41894531 1019.95800781 C530.03313664 1008.32370495 555.61178418 991.74249963 576.89453125 971.95703125 C578.80391744 970.18225856 580.75920568 968.49444992 582.75 966.8125 C591.85202502 958.85515156 600.38143469 950.1771601 607.87109375 940.6875 C610.11635885 937.8531103 612.45908438 935.12002994 614.8125 932.375 C674.61201951 860.48638009 698.00216881 762.85101568 706.25794983 614.70615387 C706.24982543 612.51542668 706.24490711 610.32470997 706.24060059 608.13397217 C706.19291133 587.03513076 705.96394806 566.02438415 704 545 C703.86964314 543.54965527 703.73944095 542.09929663 703.609375 540.64892578 C695.57214489 452.46093968 672.40139821 363.42209548 612 284 C611.27296875 283.07832031 610.5459375 282.15664062 609.796875 281.20703125 C596.83730293 265.05418332 582.27557512 249.81217149 566 237 C564.27050463 235.5420565 562.54134583 234.08371367 560.8125 232.625 C510.46036734 191.58943426 446.61921339 171.91277382 382.875 165.3125 C381.73385742 165.19302002 380.59271484 165.07354004 379.41699219 164.95043945 C309.60052153 158.20047124 239.14201057 163 169 163 Z " fill="#2D90CE" transform="translate(1372,1923)"/>
</svg>
